<?xml version="1.0" encoding="UTF-8" standalone="no"?><!DOCTYPE svg PUBLIC "-//W3C//DTD SVG 1.1//EN" "http://www.w3.org/Graphics/SVG/1.1/DTD/svg11.dtd"><svg width="100%" height="100%" viewBox="0 0 264 202" version="1.1" xmlns="http://www.w3.org/2000/svg" xmlns:xlink="http://www.w3.org/1999/xlink" xml:space="preserve" xmlns:serif="http://www.serif.com/" style="fill-rule:evenodd;clip-rule:evenodd;stroke-linejoin:round;stroke-miterlimit:2;"><g id="noeud"><path d="M111.681,122.805c0.504,0.435 1.259,1.086 7.038,4.439c2.957,2.148 6.4,6.371 7.131,5.92c3.213,-1.982 4.807,-2.006 9.958,-0.207c1.181,0.412 5.575,-3.874 11.856,-6.187c2.024,-0.745 8.132,-4.073 15.059,-3.681c2.37,0.134 3.83,4.294 3.995,4.764c2.472,7.044 -5.014,10.826 -3.303,20.188c0.976,5.342 -3.542,13.473 -8.303,14.043c-10.253,1.226 -18.613,-13.27 -21.366,-12.492c-0.125,0.035 -0.245,0.066 -0.361,0.091c-2.972,0.663 -4.487,-0.753 -6.323,0.965c-0.606,0.567 -4.459,3.521 -8.531,5.908c-0.548,0.322 -7.436,6.129 -14.172,1.906c-5.912,-3.707 -2.838,-9.455 -5.707,-18.199c-2.038,-6.212 -1.514,-8.916 2.433,-16.011c2.613,-4.697 10.346,-1.518 10.599,-1.447Z" style="fill:#f6b73c;fill-opacity:0.99;"/><path d="M164.868,130.157c-0.843,7.245 -3.973,7.503 -3.947,14.398c0.004,0.934 1.598,11.732 -5.216,14.775c-5.169,2.308 -12.988,-5.55 -19.269,-11.124c-0.769,-0.682 1.05,-4.647 3.033,-4.605c4.872,0.103 4.785,0.646 8.226,1.2c0.901,0.145 2.432,-1.016 -0.192,-2.124c-2.911,-1.229 -9.118,-1.658 -8.174,-2.155c6.031,-3.172 13.772,-1.442 11.778,-3.708c-0.155,-0.176 -4.412,-1.951 -11.682,1.689c-0.902,0.452 -2.189,-2.475 -0.962,-3.592c5.645,-5.14 22.953,-13.685 25.837,-7.605c0.485,1.023 0.557,2.619 0.567,2.851Z" style="fill:#f4ed92;"/><path d="M102.345,149.497c-0.427,-6.583 -0.485,-6.567 -2.065,-11.762c-0.277,-0.91 -1.674,-5.506 2.454,-11.628c0.984,-1.46 4.642,-6.884 20.407,8.235c1.481,1.42 -0.155,2.22 -0.461,3.85c-0.125,0.669 -0.192,1.35 -0.35,2.012c-0.139,0.583 -0.33,0.07 -1.04,-0.485c-3.64,-2.844 -9.778,-4.349 -10.831,-3.397c-2.44,2.207 4.113,1.244 9.426,4.99c1.514,1.068 -5.287,0.003 -6.46,1.863c-2.031,3.218 7.438,-1.7 9.915,1.848c2.028,2.904 2.211,2.742 2.276,3.039c0.105,0.48 -12.624,10.373 -16.189,9.688c-7.275,-1.397 -6.895,-6.556 -7.083,-8.253Z" style="fill:#f4ed92;fill-opacity:1;"/><ellipse cx="130.514" cy="140.561" rx="6.571" ry="7.569" style="fill:#0d182a;fill-opacity:0.98;"/><path d="M130.514,146.872l-1.269,-5.357l1.269,-1.178l1.269,1.178l-1.269,5.357Z" style="fill:url(#_Linear1);fill-rule:nonzero;"/><path d="M130.514,134.25l1.269,5.357l-1.269,1.178l-1.269,-1.178l1.269,-5.357Z" style="fill:url(#_Linear2);fill-rule:nonzero;"/><path d="M125.951,140.595l3.746,-1.11l0.817,1.11l-0.817,1.11l-3.746,-1.11Z" style="fill:url(#_Linear3);fill-rule:nonzero;"/><path d="M135.078,140.595l-3.746,1.11l-0.817,-1.11l0.817,-1.11l3.746,1.11Z" style="fill:url(#_Linear4);fill-rule:nonzero;"/></g><defs><linearGradient id="_Linear1" x1="0" y1="0" x2="1" y2="0" gradientUnits="userSpaceOnUse" gradientTransform="matrix(0,5.356548,-11.903499,0,130.51445,141.515748)"><stop offset="0" style="stop-color:#fff;stop-opacity:1"/><stop offset="0.44" style="stop-color:#fbe3dd;stop-opacity:1"/><stop offset="1" style="stop-color:#d65a45;stop-opacity:1"/></linearGradient><linearGradient id="_Linear2" x1="0" y1="0" x2="1" y2="0" gradientUnits="userSpaceOnUse" gradientTransform="matrix(0,-5.356548,11.903499,0,130.51445,139.606215)"><stop offset="0" style="stop-color:#fff;stop-opacity:1"/><stop offset="0.44" style="stop-color:#fbe3dd;stop-opacity:1"/><stop offset="1" style="stop-color:#d65a45;stop-opacity:1"/></linearGradient><linearGradient id="_Linear3" x1="0" y1="0" x2="1" y2="0" gradientUnits="userSpaceOnUse" gradientTransform="matrix(-3.745847,0,-0,-10.175332,129.697166,140.594691)"><stop offset="0" style="stop-color:#fff;stop-opacity:1"/><stop offset="0.5" style="stop-color:#f7d9d6;stop-opacity:1"/><stop offset="1" style="stop-color:#a74d48;stop-opacity:1"/></linearGradient><linearGradient id="_Linear4" x1="0" y1="0" x2="1" y2="0" gradientUnits="userSpaceOnUse" gradientTransform="matrix(3.745847,0,0,10.175332,131.331719,140.594687)"><stop offset="0" style="stop-color:#fff;stop-opacity:1"/><stop offset="0.5" style="stop-color:#f7d9d6;stop-opacity:1"/><stop offset="1" style="stop-color:#a74d48;stop-opacity:1"/></linearGradient></defs></svg>