<?xml version="1.0" encoding="UTF-8" standalone="no"?><!DOCTYPE svg PUBLIC "-//W3C//DTD SVG 1.1//EN" "http://www.w3.org/Graphics/SVG/1.1/DTD/svg11.dtd"><svg width="100%" height="100%" viewBox="0 0 264 202" version="1.1" xmlns="http://www.w3.org/2000/svg" xmlns:xlink="http://www.w3.org/1999/xlink" xml:space="preserve" xmlns:serif="http://www.serif.com/" style="fill-rule:evenodd;clip-rule:evenodd;stroke-linejoin:round;stroke-miterlimit:2;"><g id="tete-1" serif:id="tete 1"><path d="M97.046,92.402c0.269,-22.27 16.719,-30.204 21.123,-32.407c8.542,-4.274 20.312,-3.653 26.402,-1.647c28.658,9.44 30.422,39.708 18.981,55.071c-17.042,22.884 -45.098,14.913 -53.54,6.794c-7.592,-7.301 -12.823,-13.354 -12.966,-27.812Z" style="fill:#f6b73c;fill-opacity:0.98;"/><path d="M134.921,126.462c-17.148,1.127 -34.938,-12.34 -36.028,-32.242c-1.579,-28.837 36.046,-49.489 60.699,-24.134c16.115,16.574 10.267,54.052 -24.671,56.376Z" style="fill:#fddbb5;"/><path d="M152.909,104.49c-0.428,-0.089 -3.748,-0.775 -4.298,-3.382c-1.541,-7.305 11.078,-7.387 9.048,0.205c-1.013,3.789 -4.677,3.173 -4.75,3.177Z" style="fill:#0d182a;"/><path d="M108.758,104.49c-0.428,-0.089 -3.748,-0.775 -4.298,-3.382c-1.541,-7.305 11.078,-7.387 9.048,0.205c-1.013,3.789 -4.677,3.173 -4.75,3.177Z" style="fill:#0d182a;"/><path d="M132.003,103.945c-0.437,0 -5.33,0.006 -4.881,-2.454c0.206,-1.128 3.06,0.997 5.956,0.098c0.289,-0.09 2.185,-1.165 2.935,-0.107c0.218,0.307 0.879,1.552 -4.01,2.463Z" style="fill:#0d182a;"/><path d="M155.528,98.181l0.221,1.036l0.599,0.383l-0.599,0.383l-0.221,1.036l-0.221,-1.036l-0.599,-0.383l0.599,-0.383l0.221,-1.036Z" style="fill:#72fbff;"/><path d="M111.573,98.181l0.233,1.036l0.629,0.383l-0.629,0.383l-0.233,1.036l-0.233,-1.036l-0.629,-0.383l0.629,-0.383l0.233,-1.036Z" style="fill:#72fbff;"/></g></svg>