<?xml version="1.0" encoding="UTF-8" standalone="no"?><!DOCTYPE svg PUBLIC "-//W3C//DTD SVG 1.1//EN" "http://www.w3.org/Graphics/SVG/1.1/DTD/svg11.dtd"><svg width="100%" height="100%" viewBox="0 0 264 202" version="1.1" xmlns="http://www.w3.org/2000/svg" xmlns:xlink="http://www.w3.org/1999/xlink" xml:space="preserve" xmlns:serif="http://www.serif.com/" style="fill-rule:evenodd;clip-rule:evenodd;stroke-linejoin:round;stroke-miterlimit:2;"><g id="tete-2" serif:id="tete 2"><path d="M169.954,90.083c0.617,3.59 0.866,24.26 -20.232,34.802c-14.165,7.078 -31.247,2.093 -37.14,-2.819c-1.539,-1.283 -12.137,-7.289 -15.102,-23.621c-0.643,-3.544 -2.092,-18.577 9.109,-30.178c16.159,-16.736 40.951,-13.607 52.979,-0.907c0.872,0.921 10.076,9.665 10.387,22.723Z" style="fill:#f6b83f;fill-opacity:0.98;"/><path d="M134.532,58.767c0.324,0.022 17.977,-0.539 28.548,15.94c9.159,14.277 7.128,39.815 -17.149,49.655c-2.279,0.924 -9.886,2.229 -13.757,2.054c-35.356,-1.592 -45.929,-48.193 -13.934,-64.251c6.591,-3.308 14.96,-3.386 16.292,-3.398Z" style="fill:#fddbb5;"/><path d="M153.199,90.73c0.715,0.068 6.239,0.592 8.07,3.936c0.1,0.183 0.393,2.318 -2.577,0.416c-7.326,-4.69 -8.442,-1.497 -12.61,0.914c-1.364,0.789 -1.592,-0.425 -0.601,-1.679c3.061,-3.872 7.607,-3.582 7.718,-3.587Z" style="fill:#0d182a;"/><path d="M111.151,95.449c-3.488,0.354 -3.408,0.684 -6.377,2.563c-0.563,0.356 -1.386,-0.589 0.087,-2.25c4.503,-5.079 13.915,-0.859 12.869,2.688c-0.841,2.849 -2.235,-2.738 -6.578,-3Z" style="fill:#0d182a;"/><path d="M131.992,101.79c2.115,-0.157 4.663,-1.96 3.966,0.452c-0.763,2.644 -9.747,1.836 -8.685,-0.721c0.471,-1.134 1.179,0.076 4.719,0.27Z" style="fill:#0d182a;"/></g></svg>