<?xml version="1.0" encoding="UTF-8" standalone="no"?><!DOCTYPE svg PUBLIC "-//W3C//DTD SVG 1.1//EN" "http://www.w3.org/Graphics/SVG/1.1/DTD/svg11.dtd"><svg width="100%" height="100%" viewBox="0 0 264 202" version="1.1" xmlns="http://www.w3.org/2000/svg" xmlns:xlink="http://www.w3.org/1999/xlink" xml:space="preserve" xmlns:serif="http://www.serif.com/" style="fill-rule:evenodd;clip-rule:evenodd;stroke-linejoin:round;stroke-miterlimit:2;"><g id="tete-4" serif:id="tete 4"><path d="M170.132,92.309c-0.562,31.608 -34.942,45.328 -57.922,29.281c-15.81,-11.041 -19.652,-32.187 -9.663,-48.104c9.454,-15.065 29.991,-21.505 47.37,-13.031c21.091,10.285 20.212,31.553 20.215,31.854Z" style="fill:#f6b83e;fill-opacity:0.98;"/><path d="M168.141,92.128c-0.091,2.285 0.501,12.693 -8.492,22.779c-16.349,18.336 -47.582,14.021 -57.813,-8.848c-10.549,-23.579 9.89,-52.301 39.038,-46.66c1.589,0.308 10.392,2.011 17.743,9.724c9.391,9.853 9.303,19.335 9.524,23.006Z" style="fill:#fddbb5;"/><path d="M131.474,101.64c2.781,-0.174 3.362,-1.081 4.167,-0.82c1.12,0.364 1.104,14.444 -3.261,14.409c-4.423,-0.035 -5.064,-10.947 -5.265,-12.947c-0.214,-2.128 2.251,-0.716 4.36,-0.642Z" style="fill:#0d182a;"/><path d="M134.286,105.543c-0.061,0.6 -1.16,11.442 -3.114,6.865c-1.274,-2.985 -2.92,-9.172 -1.683,-8.921c2.152,0.436 2.142,0.344 4.335,0.018c0.422,-0.063 0.459,1.871 0.462,2.039Z" style="fill:#72fbff;"/><path d="M154.483,90.781c7.226,1.337 8.119,6.413 5.414,4.994c-0.807,-0.423 -6.315,-5.667 -12.255,-1.044c-2.096,1.631 -2.07,1.959 -2.545,1.672c-0.599,-0.362 -0.199,-1.759 1.292,-3.115c3.114,-2.834 7.418,-2.551 8.094,-2.506Z" style="fill:#0d182a;"/><path d="M111.721,93.294c0.609,0.136 6.34,1.417 6.139,4.815c-0.046,0.772 -0.952,1.375 -1.533,0.835c-0.266,-0.247 -2.521,-4.519 -7.297,-3.301c-1.219,0.311 -5.794,3.777 -4.86,1.034c0.218,-0.638 2.133,-2.08 2.888,-2.481c2.154,-1.144 2.234,-0.858 4.663,-0.903Z" style="fill:#0d182a;"/></g></svg>