<?xml version="1.0" encoding="UTF-8" standalone="no"?><!DOCTYPE svg PUBLIC "-//W3C//DTD SVG 1.1//EN" "http://www.w3.org/Graphics/SVG/1.1/DTD/svg11.dtd"><svg width="100%" height="100%" viewBox="0 0 264 202" version="1.1" xmlns="http://www.w3.org/2000/svg" xmlns:xlink="http://www.w3.org/1999/xlink" xml:space="preserve" xmlns:serif="http://www.serif.com/" style="fill-rule:evenodd;clip-rule:evenodd;stroke-linejoin:round;stroke-miterlimit:2;"><g id="tete-5" serif:id="tete 5"><path d="M170.117,92.02c-0.448,7.37 -0.555,11.97 -6.734,21.302c-5.536,8.361 -17.755,13.965 -21.89,14.167c-1.503,0.074 -22.694,5.973 -38.107,-14.455c-12.584,-16.677 -6.998,-47.285 20.098,-55.02c14.431,-4.12 26.546,2.529 28.565,3.637c16.485,9.046 17.725,26.377 17.92,29.104c0.007,0.102 0.011,0.094 0.148,1.265Z" style="fill:#f6b73d;fill-opacity:1;"/><path d="M98.867,92.02c0.4,-17.666 11.965,-25.249 15.233,-27.729c0.526,-0.399 5.318,-3.031 7.218,-3.694c18.526,-6.461 40.778,3.166 45.862,23.778c3.256,13.199 -2.316,24.351 -5.808,28.419c-2.195,2.556 -2.076,2.612 -2.277,2.821c-12.082,12.53 -31.691,13.866 -44.562,5.366c-16.521,-10.911 -15.63,-26.757 -15.666,-28.961Z" style="fill:#fddbb5;"/><path d="M109.217,99.834c0.054,-0.364 -0.025,-0.739 0.029,-1.103c0.429,-2.889 6.093,-5.432 8.7,-1.121c3.757,6.212 -8.385,10.459 -8.729,2.225Z" style="fill:#0d182a;"/><path d="M153.392,99.834c0.054,-0.364 -0.025,-0.739 0.029,-1.103c0.429,-2.889 6.093,-5.432 8.7,-1.121c3.757,6.212 -8.385,10.459 -8.729,2.225Z" style="fill:#0d182a;"/><path d="M139.952,101.651c-0.541,3.528 -10.175,2.427 -8.831,-0.368c0.829,-1.723 2.359,1.683 6.55,-0.001c2.027,-0.814 2.242,0.188 2.281,0.369Z" style="fill:#0d182a;"/><path d="M160.419,97.661l0.221,1.036l0.599,0.383l-0.599,0.383l-0.221,1.036l-0.221,-1.036l-0.599,-0.383l0.599,-0.383l0.221,-1.036Z" style="fill:#72fbff;"/><path d="M116.464,97.661l0.233,1.036l0.629,0.383l-0.629,0.383l-0.233,1.036l-0.233,-1.036l-0.629,-0.383l0.629,-0.383l0.233,-1.036Z" style="fill:#72fbff;"/></g></svg>