<?xml version="1.0" encoding="UTF-8" standalone="no"?><!DOCTYPE svg PUBLIC "-//W3C//DTD SVG 1.1//EN" "http://www.w3.org/Graphics/SVG/1.1/DTD/svg11.dtd"><svg width="100%" height="100%" viewBox="0 0 264 202" version="1.1" xmlns="http://www.w3.org/2000/svg" xmlns:xlink="http://www.w3.org/1999/xlink" xml:space="preserve" xmlns:serif="http://www.serif.com/" style="fill-rule:evenodd;clip-rule:evenodd;stroke-linejoin:round;stroke-miterlimit:2;"><g id="tete-3" serif:id="tete 3"><path d="M132.712,56.76c18.178,0.203 24.163,7.635 29.895,13.602c1.153,1.2 4.959,7.211 6.23,12.129c6.956,26.925 -15.03,49.718 -41.742,45.383c-23.986,-3.893 -38.04,-30.37 -25.177,-53.514c0.819,-1.474 5.512,-7.804 7.88,-9.208c3.747,-2.222 8.526,-8.199 22.914,-8.393Z" style="fill:#f6b73c;fill-opacity:0.99;"/><path d="M135.802,126.413c-1.306,0.007 -22.538,2.09 -33.555,-19.386c-13.527,-26.367 15.268,-60.019 47.551,-44.585c11.943,5.71 21.949,21.995 17.324,38.579c-0.426,1.529 -5.418,23.173 -31.319,25.392Z" style="fill:#fddbb5;"/><path d="M126.986,103.407c0.103,-1.725 -0.072,-1.797 0.288,-2.173c0.67,-0.701 0.8,-0.197 2.886,0.401c1.6,0.458 4.207,-0.497 5.457,-0.623c2.125,-0.214 -0.201,13.813 -4.708,12.878c-4.174,-0.866 -3.919,-10.435 -3.922,-10.482Z" style="fill:#0d182a;"/><path d="M153.051,104.415c-6.539,-1.088 -4.877,-7.187 -1.964,-8.568c6.729,-3.19 10.132,8.593 1.964,8.568Z" style="fill:#0d182a;"/><path d="M109.286,104.415c-8.169,0.026 -4.766,-11.758 1.963,-8.567c2.909,1.379 4.584,7.478 -1.963,8.567Z" style="fill:#0d182a;"/><path d="M128.64,103.958c0.056,-0.353 -0.089,-0.535 0.256,-0.466c2.44,0.495 2.425,0.641 4.897,0.216c0.263,-0.045 0.628,0.129 -0.155,3.342c-2.959,12.142 -4.936,-2.626 -4.998,-3.093Z" style="fill:#72fbff;"/><path d="M155.856,97.722l0.221,1.036l0.599,0.383l-0.599,0.383l-0.221,1.036l-0.221,-1.036l-0.599,-0.383l0.599,-0.383l0.221,-1.036Z" style="fill:#72fbff;"/><path d="M111.902,97.722l0.233,1.036l0.629,0.383l-0.629,0.383l-0.233,1.036l-0.233,-1.036l-0.629,-0.383l0.629,-0.383l0.233,-1.036Z" style="fill:#72fbff;"/></g></svg>