<?xml version="1.0" encoding="UTF-8" standalone="no"?><!DOCTYPE svg PUBLIC "-//W3C//DTD SVG 1.1//EN" "http://www.w3.org/Graphics/SVG/1.1/DTD/svg11.dtd"><svg width="100%" height="100%" viewBox="0 0 264 202" version="1.1" xmlns="http://www.w3.org/2000/svg" xmlns:xlink="http://www.w3.org/1999/xlink" xml:space="preserve" xmlns:serif="http://www.serif.com/" style="fill-rule:evenodd;clip-rule:evenodd;stroke-linejoin:round;stroke-miterlimit:2;"><g id="queue"><path d="M237.005,50.895c9.028,0.26 12.018,9.295 -2.438,22.758c-1.234,1.149 -27.349,23.056 -27.965,23.481c-0.047,0.032 -11.238,9.378 -11.722,9.675c-1.179,0.722 -1.789,2.253 -27.473,21.449c-11.721,8.76 -15.715,10.166 -17.247,10.706c-5.49,1.933 -7.461,2.362 -21.156,2.187c-2.98,-0.038 -15.821,-2.979 -18.74,-5.38c-0.337,-0.278 -0.505,0.01 -4.437,-3.183c-15.622,-12.69 -22.535,-39.339 -12.899,-58.801c5.18,-10.463 8.595,-14.262 13.434,-18.905c2.678,-2.569 10.998,-6.734 16.743,-11.015c0.354,-0.263 14.73,-10.222 25.401,-15.793c4.104,-2.143 18.733,-12.022 28.267,-6.159c6.739,4.144 0.065,14.455 -3.495,16.592c-0.739,0.444 -5.324,4.5 -5.778,4.902c-6.383,5.648 -8.28,6.457 -5.962,7.51c4.274,1.941 30.549,-20.351 48.889,-31.063c13.698,-8.001 33.5,-26.766 49.203,-17.204c2.482,1.511 8.061,9.69 -3.481,20.785c-2.657,2.554 -53.925,41.432 -55.922,42.643c-3.483,2.11 -3.095,2.623 -6.583,4.731c-1.821,1.101 -3.832,3.329 -4.127,3.656c-0.456,0.506 -1.196,3.599 3.293,1.483c18.041,-8.501 26.884,-24.67 44.195,-25.055Z" style="fill:#f6b73c;fill-opacity:0.98;"/><path d="M132.091,138.513c-25.518,-1.476 -34.243,-19.737 -36.337,-23.588c-5.138,-9.448 -5.616,-23.951 -3.629,-30.627c6.136,-20.615 18.038,-28.361 20.47,-29.944c15.206,-9.897 14.483,-10.967 30.217,-19.986c9.84,-5.641 28.048,-16.965 33.411,-8.624c4.311,6.704 -16.881,18.089 -18.222,22.568c-1.008,3.367 1.666,8.984 11.071,3.414c4.559,-2.7 3.672,-3.946 54.922,-37.024c20.377,-13.152 25.104,-13.898 32.128,-10.787c6.959,3.082 4.816,12.472 -3.201,18.375c-7.406,5.453 -22.119,17.564 -61.363,46.616c-11.555,8.554 -2.936,10.455 -2.081,10.543c10.037,1.039 30.71,-22.928 44.027,-25.397c0.723,-0.134 9.499,-1.761 7.609,5.163c-0.237,0.868 -0.868,3.178 -5.829,9.614c-1.252,1.624 -1.45,1.426 -41.394,34.717c-12.325,10.273 -12.466,10.036 -24.895,20.158c-15.062,12.266 -25.562,13.784 -28.049,14.143c-4.421,0.639 -4.403,0.61 -8.854,0.665Z" style="fill:url(#_Linear1);"/><path d="M189.682,10.986c4.434,-0.844 7.511,1.952 6.64,5.864c-2.123,9.533 -10.128,6.266 -11.296,5.261c-0.42,-0.362 -2.75,-2.367 -0.821,-6.881c1.954,-4.571 4.676,-4.095 5.477,-4.243Z" style="fill:#f6b73c;fill-opacity:0.98;"/><path d="M190.719,14.295c6.275,1.436 -3.215,9.388 -4.182,3.376c-0.036,-0.226 0.277,-2.344 4.182,-3.376Z" style="fill:#1e4054;"/><path d="M189.274,56.366l1.151,3.385l3.11,1.252l-3.11,1.252l-1.151,3.385l-1.151,-3.385l-3.11,-1.252l3.11,-1.252l1.151,-3.385Z" style="fill:#72fbff;"/><path d="M201.967,83.812l0.914,2.253l2.47,0.834l-2.47,0.834l-0.914,2.253l-0.914,-2.253l-2.47,-0.834l2.47,-0.834l0.914,-2.253Z" style="fill:#72fbff;"/><path d="M221.191,23.628l0.914,2.253l2.47,0.834l-2.47,0.834l-0.914,2.253l-0.914,-2.253l-2.47,-0.834l2.47,-0.834l0.914,-2.253Z" style="fill:#72fbff;"/><path d="M144.093,40.074l0.982,4.665l2.653,1.726l-2.653,1.726l-0.982,4.665l-0.982,-4.665l-2.653,-1.726l2.653,-1.726l0.982,-4.665Z" style="fill:#72fbff;"/><path d="M221.191,65.187l0.745,3.842l2.012,1.422l-2.012,1.422l-0.745,3.842l-0.745,-3.842l-2.012,-1.422l2.012,-1.422l0.745,-3.842Z" style="fill:#72fbff;"/><path d="M167.629,62.507l0.677,1.692l1.83,0.626l-1.83,0.626l-0.677,1.692l-0.677,-1.692l-1.83,-0.626l1.83,-0.626l0.677,-1.692Z" style="fill:#72fbff;"/><path d="M175.675,106.678l0.677,1.692l1.83,0.626l-1.83,0.626l-0.677,1.692l-0.677,-1.692l-1.83,-0.626l1.83,-0.626l0.677,-1.692Z" style="fill:#72fbff;"/><path d="M252.848,11.977l0.677,1.692l1.83,0.626l-1.83,0.626l-0.677,1.692l-0.677,-1.692l-1.83,-0.626l1.83,-0.626l0.677,-1.692Z" style="fill:#72fbff;"/><path d="M202.994,38.946l0.508,2.744l1.372,1.015l-1.372,1.015l-0.508,2.744l-0.508,-2.744l-1.372,-1.015l1.372,-1.015l0.508,-2.744Z" style="fill:#72fbff;"/><path d="M230.064,26.715l0.508,2.744l1.372,1.015l-1.372,1.015l-0.508,2.744l-0.508,-2.744l-1.372,-1.015l1.372,-1.015l0.508,-2.744Z" style="fill:#72fbff;"/><path d="M183.133,86.89l0.508,2.744l1.372,1.015l-1.372,1.015l-0.508,2.744l-0.508,-2.744l-1.372,-1.015l1.372,-1.015l0.508,-2.744Z" style="fill:#72fbff;"/><path d="M159.697,31.126l0.508,2.744l1.372,1.015l-1.372,1.015l-0.508,2.744l-0.508,-2.744l-1.372,-1.015l1.372,-1.015l0.508,-2.744Z" style="fill:#72fbff;"/></g><defs><linearGradient id="_Linear1" x1="0" y1="0" x2="1" y2="0" gradientUnits="userSpaceOnUse" gradientTransform="matrix(100.845654,-70.494049,70.494049,100.845654,123.401137,101.838504)"><stop offset="0" style="stop-color:#0c1425;stop-opacity:1"/><stop offset="1" style="stop-color:#21465b;stop-opacity:1"/></linearGradient></defs></svg>