<?xml version="1.0" encoding="UTF-8" standalone="no"?><!DOCTYPE svg PUBLIC "-//W3C//DTD SVG 1.1//EN" "http://www.w3.org/Graphics/SVG/1.1/DTD/svg11.dtd"><svg width="100%" height="100%" viewBox="0 0 264 202" version="1.1" xmlns="http://www.w3.org/2000/svg" xmlns:xlink="http://www.w3.org/1999/xlink" xml:space="preserve" xmlns:serif="http://www.serif.com/" style="fill-rule:evenodd;clip-rule:evenodd;stroke-linejoin:round;stroke-miterlimit:2;"><g id="main-1" serif:id="main 1"><path d="M55.23,158.436c0.045,0.035 0.09,0.07 0.134,0.105c1.272,-2.189 0.681,-2.424 1.84,-4.661c0.137,-0.265 -2.304,-3.086 -4.801,-1.048c-3.052,2.49 -6.088,1.546 -5.518,-0.034c0.043,-0.12 6.099,-5.736 8.002,-5.721c0.414,0.003 9.463,1.288 9.834,2.142c0.59,1.361 0.92,9.295 0.871,9.545c-0.303,1.537 -0.537,1.45 -1.887,2.254c-0.195,0.116 -12.516,8.367 -3.361,3.79c2.683,-1.342 4.836,-4.341 5.529,-4.216c0.336,0.061 5.055,2.912 4.023,5.2c-1.504,3.331 -17.285,11.315 -18.726,10.002c-1.551,-1.414 -3.112,-7.483 -1.586,-7.762c1.526,-0.279 4.573,-0.11 3.712,-0.593c-0.508,-0.285 -4.282,1.121 -4.773,-0.622c-0.253,-0.898 -5.927,-7.052 -4.145,-7.319c1.685,-0.252 1.694,-0.37 3.893,-2.647c0.263,-0.272 -0.075,-0.662 0.814,-0.925c5.012,-1.483 4.452,-3.066 5.492,-2.813c0.868,0.211 0.743,0.453 1.57,0.78c0.753,0.298 -0.671,0.959 -0.915,4.542Z" style="fill:#fefefe;fill-opacity:0.99;"/><path d="M60.773,140.165c-0.024,0.228 -0.007,0.205 0.08,0.423c0.62,1.883 2.54,6.357 3.15,6.696c0.733,0.407 1.794,0.097 2.139,2.406c0.706,4.727 -0.256,5.691 0.68,6.882c0.81,1.031 -1.226,2.743 0.603,3.315c0.232,0.073 0.11,0.268 2.548,1.656c1.325,0.754 3.003,4.743 0.164,6.549c-0.733,0.466 -2.496,2.811 -11.462,7.202c-6.686,3.274 -9.273,3.355 -9.793,-1.774c-0.012,-0.115 -0.098,-3.891 -0.055,-4.213c0.011,-0.081 0.05,-0.703 0.273,-0.818c1.062,-0.155 0.801,1.819 1.365,5.189c0.488,2.919 1.611,2.283 4.401,1.347c0.959,-0.322 0.908,-0.402 1.876,-0.791c0.144,-0.058 1.348,-0.543 1.755,-0.827c0.394,-0.102 3.594,-1.75 6.306,-3.44c5.693,-3.548 5.719,-4.519 4.607,-6.449c-0.644,-1.117 -3.7,-3.076 -3.807,-2.956c-0.408,0.459 -3.113,3.497 -6.04,4.737c-8.838,3.745 5.852,-5.337 5.86,-5.578c0.077,-2.328 0.221,-2.324 0.178,-2.521c-0.567,-2.608 -0.295,-4.597 -0.596,-6.722c-0.253,-1.789 -0.687,-1.642 -2.445,-1.998c-0.624,-0.126 -6.458,-1.307 -7.835,-1.396c-1.209,-0.079 -7.911,5.63 -7.834,5.892c0.993,3.35 4.984,0.021 6.465,-0.871c1.144,-0.689 4.37,1.217 3.967,1.767c-0.2,0.274 -0.415,0.567 -1.525,3.955c-0.021,0.064 -0.541,1.652 -0.565,0.63c-0.055,-2.376 0.854,-3.804 1.036,-4.088c0.27,-0.424 -0.216,-0.23 -1.008,-0.837c-1.128,-0.864 -1.115,0.038 -2.304,0.779c-2.956,1.844 -4.136,1.704 -4.351,1.779c-0.078,0.027 -0.096,0.61 -0.218,0.749c-2.3,2.631 -2.488,2.49 -4.341,2.824c-0.54,0.097 2.752,4.667 3.491,5.365c1.714,1.618 1.038,1.999 1.203,2.1c1.368,0.833 2.704,0.261 4.266,0.255c1.564,-0.006 -0.373,1.088 -2.507,1.069c-0.752,-0.007 -0.329,-0.066 -1.401,0.036c-2.735,0.26 -1.79,-1.487 -2.548,-2.318c-0.424,-0.465 -0.461,-0.411 -0.598,-0.498c-0.02,-0.065 -0.029,-0.059 -0.353,-0.447c-3.204,-4.775 -2.255,-5.379 -2.962,-5.784c-1.438,-0.824 -3.918,-3.719 -4.476,-4.764c-1.215,-2.278 -2.673,-2.849 -0.316,-5.904c0.76,-0.985 1.048,-0.854 1.178,-2.073c0.193,-1.812 5.889,-3.336 5.935,-3.62c0.055,-0.336 -0.04,-1.743 0.81,-2.516c1.667,-1.517 6.782,-0.653 6.695,-1.231c-0.139,-0.928 -0.727,-2.494 -0.806,-2.705c-2.578,-6.861 -2.225,-10.341 -2.132,-11.252c0.253,-2.488 3.573,-5.653 5.891,-1.44c3.088,5.611 3.793,14.127 5.354,16.227Z" style="fill:#f0b23a;fill-opacity:0.98;"/><path d="M52.851,123.414c3.17,0.438 4.212,14.091 8.881,22.376c0.142,0.253 0.974,1.317 -0.093,1.139c-6.123,-1.024 -6.111,-1.339 -6.187,-1.642c-3.432,-13.751 -3.608,-13.701 -3.904,-14.897c-1.648,-6.672 0.738,-6.918 1.303,-6.976Z" style="fill:#fefefe;fill-opacity:0.99;"/><path d="M50.49,140.972c1.772,-0.312 1.753,-0.402 2.216,-0.293c0.305,0.072 1.608,4.751 1.605,4.766c-0.118,0.586 -0.809,-0.178 -6.141,4.253c-0.328,0.272 -0.826,0.122 -1.674,-5.059c-0.571,-3.486 0.813,-3.243 3.995,-3.668Z" style="fill:#fefefe;fill-opacity:0.99;"/><path d="M45.239,152.797c0.652,1.734 2,3.537 0.597,2.307c-2.926,-2.568 -6.242,-7.073 -5.163,-8.37c1,-1.202 1.474,-0.527 4.064,-2.501c0.927,-0.706 0.243,1.925 2.11,5.458c0.044,0.083 0.451,0.854 -0.001,1.178c-1.068,0.765 -1.276,0.639 -1.608,1.929Z" style="fill:#fdfefe;fill-opacity:0.99;"/><path d="M38.204,151.392c0.065,-0.743 0.08,-0.717 0.422,-1.389c1.074,-2.112 1.73,0.785 2.654,1.833c2.475,2.809 2.252,3.015 5.249,5.247c0.122,0.091 0.179,0.388 -1.671,0.905c-2.817,0.787 -6.415,-5.279 -6.654,-6.596Z" style="fill:#fdfefe;fill-opacity:0.99;"/></g></svg>