<?xml version="1.0" encoding="UTF-8" standalone="no"?><!DOCTYPE svg PUBLIC "-//W3C//DTD SVG 1.1//EN" "http://www.w3.org/Graphics/SVG/1.1/DTD/svg11.dtd"><svg width="100%" height="100%" viewBox="0 0 264 202" version="1.1" xmlns="http://www.w3.org/2000/svg" xmlns:xlink="http://www.w3.org/1999/xlink" xml:space="preserve" xmlns:serif="http://www.serif.com/" style="fill-rule:evenodd;clip-rule:evenodd;stroke-linejoin:round;stroke-miterlimit:2;"><g id="main-3" serif:id="main 3"><path d="M66.565,153.716c0.092,0.867 -0.069,1.563 0.526,2.986c0.545,1.302 -0.683,2.263 0.855,3.189c1.242,0.748 2.817,2.386 3.039,2.617c0.686,0.713 0.978,1.026 -1.357,4.931c-4.967,8.308 -13.765,9.682 -15.513,8.957c-2.427,-1.006 -0.957,-9.177 -1.797,-9.348c-0.805,-0.163 -0.74,-0.248 -1.51,-0.581c-0.624,-0.27 -4.201,2.734 -4.251,3.513c-0.218,3.381 -3.888,7.425 -9.129,5.322c-3.531,-1.416 6.004,-5.814 1.929,-6.441c-1.216,-0.187 -2.374,0.971 -2.531,1.127c-0.427,0.426 -1.915,1.744 -2.499,2.705c-1.779,2.928 -4.322,-10.874 4.876,-10.225c1.042,0.073 1.152,0.632 2.495,-0.301c0.367,-0.255 -0.9,-1.283 -0.596,-3.237c0.069,-0.444 0.212,-0.399 1.681,-5.363c0.611,-2.066 1.213,-1.8 1.79,-3.879c0.054,-0.195 1.653,-3.981 3.451,-4.878c2.967,-1.481 3.475,0.006 6.287,-1.778c3.501,-2.221 5.155,4.388 6.948,2.755c4.407,-4.017 4.919,-3.767 4.894,-4.75c-0.012,-0.479 -0.093,-3.655 2.55,-5.423c4.636,-3.101 10.726,-1.331 6.629,1.145c-0.187,0.113 -4.138,3.949 -3.736,4.559c1.987,3.011 5.455,-5.184 6.789,-4.402c2.02,1.184 2.393,4.642 1.433,7.222c-0.362,0.973 -1.185,4.767 -8.101,4.707c-0.285,-0.002 -0.732,-0.299 -0.873,-0.171c-1.74,1.58 -1.633,1.664 -3.564,3.003c-0.451,0.312 -0.691,1.867 -0.718,2.038Z" style="fill:#f6b941;fill-opacity:0.96;"/><path d="M64.929,154.156c0.721,6.079 0.904,6.308 4.352,8.876c1.433,1.067 -2.476,6.507 -6.847,9.12c-1.256,0.751 -6.919,3.822 -7.691,2.431c-0.387,-0.699 -1.318,-6.722 -0.918,-6.985c2.762,-1.817 2.299,-2.533 2.08,-2.404c-1.717,1.011 -1.829,0.637 -3.74,0.038c-1.168,-0.366 7.425,-6.648 7.525,-7.025c0.219,-0.827 0.227,-5.542 -1.395,-3.893c-1.311,1.333 -5.191,7.04 -7.697,2.797c-0.571,-0.966 0.458,-1.613 0.578,-1.689c7.299,-4.593 6.904,-8.155 11.857,-5.521c1.868,0.993 1.815,3.811 1.895,4.255Z" style="fill:#fcfdfe;fill-opacity:1;"/><path d="M73.659,135.297c0.202,0.012 0.405,0.004 0.607,0.015c1.686,0.098 -6.528,4.821 -3.129,7.496c2.806,2.208 5.696,-2.466 6.469,-3.514c1.823,-2.471 3.181,9.413 -6.193,8.061c-1.859,-0.268 -3.925,2.776 -5.104,3.452c-0.295,0.169 -1.067,-1.16 -1.136,-1.278c-0.542,-0.931 3.278,-2.803 3.703,-4.021c0.063,-0.181 -0.124,-1.07 -1.878,0.225c-2.461,1.817 -2.372,3.02 -5.23,1.949c-0.888,-0.333 5.66,-4.575 5.562,-5.601c-0.07,-0.739 -0.62,-6.506 6.33,-6.784Z" style="fill:#fcfdfe;fill-opacity:1;"/><path d="M46.956,165.877c2.138,-0.352 2.282,-0.552 2.245,-0.374c-0.203,0.997 -3.568,1.194 -4.075,4.913c-0.482,3.534 -4.387,4.36 -6.498,3.83c-0.711,-0.179 4.277,-3.58 2.6,-5.718c-2.529,-3.223 -6.809,2.122 -6.994,2.287c-0.841,0.752 -0.549,-4.335 1.721,-6.316c2.589,-2.259 3.822,0.603 6.563,-1.17c1.275,-0.824 0.501,1.886 4.437,2.547Z" style="fill:#fbfdfe;fill-opacity:1;"/><path d="M51.365,148.498c0.059,-0.764 0.073,-1.389 1.588,-2.498c3.065,-2.243 3.852,-2.114 6.21,0.873c0.416,0.528 -1.79,1.569 -2.068,1.573c-0.733,0.012 -0.601,0.256 -0.691,0.809c-0.078,0.479 -3.624,3.394 -3.958,3.668c-0.627,0.516 -1.047,-4.063 -1.081,-4.425Z" style="fill:#fcfdfe;fill-opacity:1;"/><path d="M44.204,155.071c-0.178,-1.086 -0.193,-1.11 0.439,-2.359c0.349,-0.691 0.581,-0.284 1.024,0.373c2.01,2.974 2.628,2.464 4.494,5.508c0.508,0.829 2.023,1.196 1.498,1.778c-3.49,3.867 -7.092,-3.839 -7.455,-5.3Z" style="fill:#fcfdfe;fill-opacity:1;"/><path d="M49.862,149.234c0.364,1.41 0.157,1.457 1.414,4.187c0.288,0.626 -0.62,0.782 -1.129,1.671c-0.308,0.539 -0.403,0.873 -0.775,0.393c-3.139,-4.052 -4.394,-4.827 -1.004,-8.87c0.389,-0.464 2.881,-1.642 1.929,-0.168c-0.793,1.227 -0.414,1.326 -0.435,2.789Z" style="fill:#fbfdfe;fill-opacity:1;"/><path d="M49.051,162.897c2.123,0.308 -3.058,3.533 -5.946,-1.886c-1.045,-1.962 0.068,-4.575 0.279,-4.322c1.178,1.414 1.806,5.207 5.667,6.208Z" style="fill:#fafdfe;"/><path d="M59.773,164.089c-2.156,-0.129 1.714,-2.19 2.221,-2.512c0.163,-0.103 5.558,-3.526 2.362,-0.459c-2.401,2.304 -4.166,2.843 -4.584,2.971Z" style="fill:#f6b941;"/><path d="M52.085,162.24c0.656,-1.171 2.924,-2.686 3.211,-2.878c3.005,-2.007 2.567,-2.516 2.861,-2.615c1.643,-0.557 -0.843,1.717 -0.965,1.829c-0.48,0.439 -5.829,5.331 -6.056,5.436c-0.815,0.374 0.774,-1.442 0.95,-1.771Z" style="fill:#eef9fe;"/></g></svg>