<?xml version="1.0" encoding="UTF-8" standalone="no"?><!DOCTYPE svg PUBLIC "-//W3C//DTD SVG 1.1//EN" "http://www.w3.org/Graphics/SVG/1.1/DTD/svg11.dtd"><svg width="100%" height="100%" viewBox="0 0 264 202" version="1.1" xmlns="http://www.w3.org/2000/svg" xmlns:xlink="http://www.w3.org/1999/xlink" xml:space="preserve" xmlns:serif="http://www.serif.com/" style="fill-rule:evenodd;clip-rule:evenodd;stroke-linejoin:round;stroke-miterlimit:2;"><g id="main-4" serif:id="main 4"><path d="M38.329,150.729c1.43,1.613 -4.642,5.128 0.539,7.509c5.274,2.424 4.575,3.36 10.709,9.078c3.96,3.691 2.982,7.605 5.183,9.426c2.405,1.99 16.075,-6.767 17.025,-9.146c1.733,-4.339 -7.789,-4.667 -7.07,-9.254c0.41,-2.615 -1.713,-6.245 -0.209,-6.847c7.109,-2.848 9.239,-2.2 8.215,-5.883c-1.581,-5.683 -5.183,-10.492 -6.177,-22.504c-0.09,-1.086 -0.411,-1.047 -2.18,-1.116c-10.335,-0.403 -13.787,3.961 -13.876,0.822c-0.095,-3.372 -11.241,1.796 -13.359,2.91c-3.91,2.055 -7.009,3.396 -7.172,5.926c-0.092,1.425 -7.609,5.984 -5.383,7.84c12.573,10.487 12.534,10.513 13.756,11.239Z" style="fill:#f6b941;fill-opacity:0.98;"/><path d="M52.934,155.094c0.108,-0.119 1.226,-1.353 1.576,-1.24c0.307,0.099 -0.172,1.472 -0.308,2.295c-0.161,0.972 1.483,2.18 1.796,2.143c0.565,-0.067 3.259,-4.88 3.264,-4.897c0.312,-1.096 -5.499,-3.379 -6.529,-2.713c-3.721,2.407 -3.707,2.373 -7.592,4.532c-1.885,1.048 -1.544,3.728 -1.032,4.218c6.648,6.371 6.276,6.882 8.839,7.95c0.751,0.313 0.359,1.37 0.526,1.847c1.858,5.32 2.057,5.603 2.354,6.027c0.452,0.645 12.662,-5.334 14.116,-8.02c0.975,-1.801 -5.366,-4.31 -6.435,-6.53c-1.031,-2.139 -0.724,-11.671 -2.044,-8.118c-1.348,3.626 -2.002,3.259 -3.586,6.504c-0.758,1.553 1.376,3.817 0.992,4.263c-0.471,0.547 0.027,-0.847 -6.607,-6.143c-1.099,-0.878 -0.296,-1.092 0.671,-2.117Z" style="fill:#fcfcfe;fill-opacity:1;"/><path d="M54.015,144.374c4.401,4.492 2.78,6.356 4.408,6.208c3.272,-0.297 2.064,-1.847 0.62,-4.791c-5.628,-11.468 -6.475,-11.114 -9.62,-21.801c-0.22,-0.748 -0.774,-1.47 -9.443,2.401c-1.429,0.638 -8.441,3.954 -8.68,4.361c-0.067,0.114 6.187,9.516 7.067,9.376c0.219,-0.035 2.74,-0.965 3.22,-2.107c1.642,-3.902 1.644,-7.121 2.142,-7.045c0.543,0.083 0.311,0.536 5.922,3.466c3.68,1.921 0.72,6.711 2.839,9.111c0.092,0.104 0.121,0.035 1.525,0.82Z" style="fill:#0d182a;"/><path d="M59.614,131.532c3.477,3.218 4.539,3.955 4.49,5.579c-0.117,3.873 -0.304,3.879 0.732,8.506c1.144,5.107 -8.66,-8.332 -7.114,-5.332c3.778,7.332 4.542,7.181 4.296,10.162c-0.03,0.36 8.987,-3.099 9.045,-3.634c0.247,-2.277 -3.933,-7.109 -5.777,-19.87c-0.232,-1.609 -0.169,-3.228 -1.668,-3.208c-6.173,0.083 -11.903,1.358 -12.011,2.073c-0.159,1.05 4.739,12.551 5.171,11.71c0.138,-0.268 0.672,-7.032 1.271,-6.956c0.301,0.038 0.263,0.088 1.566,0.971Z" style="fill:#0d182a;fill-opacity:1;"/><path d="M27.82,136.495c-1.365,1.448 -1.406,1.434 -1.418,1.605c-0.05,0.687 8.364,7.722 10.896,9.78c1.793,1.458 -0.724,-1.998 -1.349,-4.79c-0.24,-1.07 0.876,-1.556 0.322,-2.394c-4.825,-7.302 -4.659,-7.412 -5.17,-7.974c-0.269,-0.296 -0.315,0.005 -3.28,3.773Z" style="fill:#0d182a;"/><path d="M49.672,142.338c-1.376,-1.653 -1.35,-1.637 -2.591,-3.381c-0.845,-1.188 -8.181,2.709 -9.388,3.66c-0.847,0.667 2.228,6.686 2.681,6.292c1.313,-1.145 1.541,-3.997 1.756,-4.782c0.328,-1.196 1.314,-0.185 1.92,-0.25c5.892,-0.629 5.916,-0.287 6.419,-0.391c0.379,-0.078 -0.716,-1.072 -0.799,-1.147Z" style="fill:#fcfcfe;"/><path d="M54.305,147.857c0.058,0.041 1.395,0.991 0.86,0.199c-1.725,-2.557 -2.222,-3.542 -3.496,-3.474c-5.719,0.306 -7.086,0.227 -7.72,1.289c-5.184,8.677 -5.213,8.939 -5.31,9.828c-0.035,0.321 0.632,0.973 0.786,0.137c0.591,-3.225 0.889,-4.705 8.809,-7.93c4.506,-1.835 5.897,-0.174 6.072,-0.048Z" style="fill:#fafbfe;fill-opacity:1;"/><path d="M43.716,154.998c8.051,-6.468 10.358,-4.681 10.357,-5.639c-0,-0.145 -2.13,-1.739 -2.572,-1.549c-10.02,4.311 -10.315,5.447 -10.563,6.404c-0.075,0.291 -0.907,3.497 0.798,3.67c0.055,0.006 0.366,0.037 0.529,-0.447c0.463,-1.376 0.486,-1.345 1.451,-2.439Z" style="fill:#fbfcfe;"/><path d="M60.992,141.377c1.653,1.664 1.788,1.7 1.86,1.522c0.153,-0.38 -0.526,-0.367 -0.095,-5.125c0.177,-1.96 -3.875,-5.347 -3.986,-5.038c-0.129,0.361 -1.381,6.055 -0.915,6.37c1.616,1.091 1.619,1.038 3.135,2.271Z" style="fill:#f58787;"/><path d="M47.933,137.212c1.008,1.189 0.72,1.36 1.731,2.502c0.307,0.347 1.189,-3.33 -0.245,-4.037c-2.333,-1.15 -2.235,-1.289 -4.51,-2.545c-0.889,-0.491 -0.685,1.368 -1.077,2.735c-0.448,1.564 -1.281,2.499 -0.185,2.041c2.095,-0.876 2.572,-1.637 4.285,-0.696Z" style="fill:#f58787;"/><path d="M63.052,163.448c0.594,-0.986 -0.399,-0.736 -1.128,-0.135c-0.114,0.094 -3.075,2.531 -0.904,1.603c1.178,-0.503 1.074,-0.622 2.033,-1.468Z" style="fill:#f6b941;"/><path d="M56.927,167.575c1.373,-2.319 -2.879,0.787 -2.015,1.08c0.305,0.104 1.865,-0.976 2.015,-1.08Z" style="fill:#f6b941;"/></g></svg>