<?xml version="1.0" encoding="UTF-8" standalone="no"?><!DOCTYPE svg PUBLIC "-//W3C//DTD SVG 1.1//EN" "http://www.w3.org/Graphics/SVG/1.1/DTD/svg11.dtd"><svg width="100%" height="100%" viewBox="0 0 264 202" version="1.1" xmlns="http://www.w3.org/2000/svg" xmlns:xlink="http://www.w3.org/1999/xlink" xml:space="preserve" xmlns:serif="http://www.serif.com/" style="fill-rule:evenodd;clip-rule:evenodd;stroke-linejoin:round;stroke-miterlimit:2;"><g id="main-2" serif:id="main 2"><path d="M68.629,151.554c-0.033,3.909 -0.244,3.866 -0.696,7.74c-0.155,1.33 0.406,1.22 0.546,2.537c0.145,1.359 5.217,1.619 2.388,6.652c-4.439,7.897 -14.766,10.792 -16.441,8.038c-0.272,-0.448 -1.27,-0.956 -1.406,-3.97c-0.071,-1.579 -1.29,-1.036 -1.557,-2.676c-0.157,-0.966 -3.618,-2.124 -4.459,-5.076c-0.401,-1.409 -1.648,-2.353 -1.846,-2.503c-0.221,-0.167 -4.173,-4.832 -4.29,-5.01c-1.148,-1.751 -5.096,-5.11 -4.003,-7.706c1.865,-4.428 5.28,2.566 5.331,1.406c0.031,-0.704 -7.137,-6.865 -4.435,-10.234c2.531,-3.157 11.055,12.203 6.713,4.744c-0.643,-1.104 -3.001,-3.517 -4.289,-7.162c-1.237,-3.501 1.387,-7.208 5.709,-2.71c1.633,1.699 2.666,3.457 2.858,3.784c2.567,4.366 1.397,1.999 3.681,6.507c2.838,5.601 -0.485,-1.488 -1.579,-4.382c-1.475,-3.903 -2.759,-5.389 -1.263,-8.412c0.568,-1.147 4.358,-3.437 10.162,12.35c0.185,0.503 1.905,4.327 2.138,2.271c1.089,-9.59 7.343,-8.753 6.981,-4.639c-0.301,3.427 -0.27,3.398 -0.245,8.449Zm-13.586,22.396c4.65,2.288 5.577,0.485 5.575,1.272c-0,0.018 -4.637,1.859 -5.509,-0.309c-0.305,-0.759 -0.302,-0.755 -0.332,-0.819c0.1,-0.135 0.096,-0.128 0.267,-0.144Zm0,0c-0.171,0.016 -0.167,0.009 -0.267,0.144c-0.011,-0.022 -0.245,-0.578 0.267,-0.144Z" style="fill:#f6b73c;fill-opacity:0.98;"/><path d="M55.043,173.949c-0.171,0.016 -0.167,0.009 -0.267,0.144c-0.011,-0.022 -0.245,-0.578 0.267,-0.144Z" style="fill:#0093c6;fill-opacity:0.23;"/><path d="M54.635,173.575c-0.671,-2.734 -0.698,-2.872 -1.245,-2.966c-0.445,-0.077 -0.449,-1.031 -0.449,-1.128c-0.005,-1.147 -2.915,-1.369 -4.66,-5.197c-1.481,-3.25 -12.452,-12.851 -9.671,-14.649c0.653,-0.422 3.112,2.768 5.808,5c0.476,0.394 0.662,0.288 0.706,0.892c0.109,1.493 2.439,-1.978 1.08,-1.128c-0.531,0.332 -7.439,-9.717 -7.689,-10.853c-0.136,-0.619 -0.198,-2.855 1.587,-1.339c3.086,2.62 6.156,7.449 8.003,9.46c0.322,0.35 0.638,0.335 0.28,0.946c-0.76,1.298 1.959,0.459 1.952,-0.607c-0.002,-0.255 -0.441,-0.045 -0.541,-0.193c-9.582,-14.242 -8.911,-15.21 -8.077,-16.413c2.065,-2.98 8.85,9.529 11.541,13.365c0.133,0.19 -0.122,0.658 0.268,0.629c1.652,-0.123 2.756,-1.015 1.69,-1.157c-0.067,-0.009 -5.338,-11.486 -4.689,-13.429c0.747,-2.235 2.726,0.605 3.087,1.048c3.542,4.351 4.822,12.898 8.23,13.896c0.077,0.023 0.406,1.796 1.074,0.263c0.344,-0.788 1.638,-9.974 4.539,-8.121c0.711,0.454 -0.185,0.738 0.126,10.54c0.195,6.175 -1.14,6.191 -0.411,8.46c1.531,4.765 4.003,3.976 3.276,5.632c-0.917,2.088 -6.387,7.74 -9.87,9.17c-0.358,0.147 -2.862,1.307 -4.819,0.688c-0.037,-0.012 -1.061,-1.911 -1.125,-2.808Z" style="fill:#fefeff;fill-opacity:1;"/><path d="M61.961,165.936c-0.458,0.419 -3.859,3.532 -7.162,2.983c-0.065,-0.011 -1.222,-0.33 0.156,-0.807c3.648,-1.263 3.52,-1.521 7.17,-2.857c0.368,-0.135 -0.134,0.634 -0.165,0.681Z" style="fill:#f6b73c;"/><path d="M57.672,159.2c0.886,-6.385 2.749,-7.109 2.907,-6.91c0.025,0.031 -1.418,4.694 -2.587,7.863c-0.357,0.968 -0.322,-0.873 -0.32,-0.954Z" style="fill:#f6b73c;"/><path d="M64.348,163.531c0.861,-0.723 0.96,-0.612 0.983,-0.526c0.125,0.468 -2.498,2.332 -0.983,0.526Z" style="fill:#f6b73c;"/></g></svg>