<?xml version="1.0" encoding="UTF-8" standalone="no"?><!DOCTYPE svg PUBLIC "-//W3C//DTD SVG 1.1//EN" "http://www.w3.org/Graphics/SVG/1.1/DTD/svg11.dtd"><svg width="100%" height="100%" viewBox="0 0 264 202" version="1.1" xmlns="http://www.w3.org/2000/svg" xmlns:xlink="http://www.w3.org/1999/xlink" xml:space="preserve" xmlns:serif="http://www.serif.com/" style="fill-rule:evenodd;clip-rule:evenodd;stroke-linejoin:round;stroke-miterlimit:2;"><g id="costume"><path d="M156.455,142.311c1.413,-0.146 8.623,-0.54 14.021,1.232c7.029,2.307 7.028,3.72 8.229,5.005c3.862,4.133 7.389,22.272 -19.227,39.651c-21.257,13.879 -27.256,16.496 -42.278,9.063c-6.489,-3.211 -8.321,-5.222 -9.335,-5.826c-18.121,-10.805 -20.787,-29.289 -15.661,-39.6c3.341,-6.72 7.421,-12.235 22.915,-9.102c6.654,1.345 8.935,4.46 12.554,3.849c14.406,-2.43 14.179,-4.198 28.781,-4.272Z" style="fill:#f6b73c;fill-opacity:0.99;"/><path d="M146.861,145.044c0.389,-0.131 0.336,-0.204 0.738,-0.248c2.74,-0.298 14.634,-1.927 23.638,1.4c11.119,4.108 10.317,15.937 0.749,28.173c-9.199,11.763 -33.048,23.996 -38.972,24.919c-0.563,0.088 -0.279,-0.48 4.21,-5.747c21.761,-25.532 22.641,-24.728 24.388,-27.06c1.933,-2.58 -9.27,-5.246 -11.074,-5.838c-1.556,-0.511 0.407,-0.284 1.989,-0.646c7.061,-1.616 5.12,-3.861 4.785,-4.248c-4.274,-4.944 -7.128,-8.515 -10.451,-10.704Z" style="fill:#0d182a;"/><path d="M107.911,143.75c6.01,0.585 6.39,0.882 6.071,1.261c-0.396,0.47 -0.578,0.296 -5.166,5.694c-7.969,9.374 -7.989,10.169 -7.06,10.586c3.507,1.575 10.502,1.013 9.164,2.012c-6.129,4.577 -8.25,6.749 -6.873,8.056c2.187,2.076 19.208,18.233 26.101,27.189c0.971,1.261 -4.059,0.783 -11.08,-2.761c-21.718,-10.961 -25.014,-22.22 -25.822,-24.978c-0.548,-1.871 -4.164,-10.901 3.205,-21.779c3.448,-5.089 10.45,-5.256 11.459,-5.28Z" style="fill:#0d182a;"/><path d="M131.866,182.312c0.078,-2.478 0.061,-2.463 0.084,-2.676c0.287,-2.699 4.989,-16.175 5.011,-16.224c0.52,-1.148 10.455,-2.369 11.866,-1.827c0.827,0.317 9.996,3.835 10.303,4.067c1.02,0.774 -7.856,7.214 -26.205,29.761c-1.589,1.952 -0.468,-1.007 -1.059,-13.101Z" style="fill:#0d182a;"/><path d="M130.441,188.073c0.02,4.589 0.198,8.097 -0.421,7.305c-5.223,-6.685 -17.521,-19.233 -23.329,-24.399c-0.321,-0.285 -1.187,-0.589 0.048,-1.771c6.675,-6.386 7.155,-6.313 7.952,-6.192c4.016,0.609 3.975,0.64 8.027,0.622c0.77,-0.003 0.782,0.227 4.644,8.429c3.537,7.512 3.016,7.728 3.078,16.005Z" style="fill:#0d182a;"/><path d="M126.014,148.694c10.86,-0.827 18.489,-4.697 17.309,-2.778c-10.214,16.606 -11.724,31.39 -12.755,29.169c-10.491,-22.594 -10.292,-22.682 -13.967,-29.409c-1.052,-1.925 5.579,2.39 9.413,3.018Z" style="fill:#fff;"/><path d="M120.861,162.042c-1.237,-0.105 -5.513,-0.468 -15.428,-1.693c-1.105,-0.137 -1.652,-0.355 -0.923,-1.204c6.316,-7.346 10.175,-13.139 10.214,-13.158c0.282,-0.134 6.541,12.269 7.633,15.533c0.346,1.033 -0.392,0.53 -1.496,0.521Z" style="fill:#0d182a;"/><path d="M144.713,159.8c-3.44,0.719 -3.43,0.649 -6.157,1.513c-1.73,0.548 6.343,-15.296 6.983,-14.966c0.566,0.292 10.588,10.142 9.477,10.663c-2.611,1.226 -5.47,1.715 -10.303,2.79Z" style="fill:#0d182a;"/><path d="M167.617,149.323l0.403,2.014l1.09,0.745l-1.09,0.745l-0.403,2.014l-0.403,-2.014l-1.09,-0.745l1.09,-0.745l0.403,-2.014Z" style="fill:#72fbff;"/><path d="M98.109,164.723l0.312,1.265l0.843,0.468l-0.843,0.468l-0.312,1.265l-0.312,-1.265l-0.843,-0.468l0.843,-0.468l0.312,-1.265Z" style="fill:#72fbff;"/><path d="M144.95,169.471l0.381,1.311l1.03,0.485l-1.03,0.485l-0.381,1.311l-0.381,-1.311l-1.03,-0.485l1.03,-0.485l0.381,-1.311Z" style="fill:#72fbff;"/><path d="M118.193,168.188l0.711,3.044l1.92,1.126l-1.92,1.126l-0.711,3.044l-0.711,-3.044l-1.92,-1.126l1.92,-1.126l0.711,-3.044Z" style="fill:#72fbff;"/><path d="M161.839,171.716l0.711,3.044l1.92,1.126l-1.92,1.126l-0.711,3.044l-0.711,-3.044l-1.92,-1.126l1.92,-1.126l0.711,-3.044Z" style="fill:#72fbff;"/><path d="M170.025,162.322l0.455,0.943l1.231,0.349l-1.231,0.349l-0.455,0.943l-0.455,-0.943l-1.231,-0.349l1.231,-0.349l0.455,-0.943Z" style="fill:#72fbff;"/><path d="M116.435,188.296l0.455,0.943l1.231,0.349l-1.231,0.349l-0.455,0.943l-0.455,-0.943l-1.231,-0.349l1.231,-0.349l0.455,-0.943Z" style="fill:#72fbff;"/></g></svg>