<svg width="1600" height="900" viewBox="0 0 1600 900" fill="none" xmlns="http://www.w3.org/2000/svg">
  <defs>
    <linearGradient id="panel" x1="220" y1="160" x2="1334" y2="740" gradientUnits="userSpaceOnUse">
      <stop offset="0" stop-color="#12243F"/>
      <stop offset="0.58" stop-color="#0C1424"/>
      <stop offset="1" stop-color="#06080D"/>
    </linearGradient>
    <linearGradient id="ring" x1="214" y1="210" x2="602" y2="598" gradientUnits="userSpaceOnUse">
      <stop offset="0" stop-color="#F9D892"/>
      <stop offset="0.45" stop-color="#F6B73C"/>
      <stop offset="1" stop-color="#A86A14"/>
    </linearGradient>
    <linearGradient id="orbit" x1="270" y1="288" x2="578" y2="518" gradientUnits="userSpaceOnUse">
      <stop offset="0" stop-color="#68E1D2" stop-opacity="0.2"/>
      <stop offset="0.36" stop-color="#68E1D2"/>
      <stop offset="0.74" stop-color="#EAF3FF"/>
      <stop offset="1" stop-color="#68E1D2" stop-opacity="0.1"/>
    </linearGradient>
    <filter id="panelShadow" x="120" y="114" width="1360" height="670" filterUnits="userSpaceOnUse" color-interpolation-filters="sRGB">
      <feOffset dy="18"/>
      <feGaussianBlur stdDeviation="26"/>
      <feColorMatrix type="matrix" values="0 0 0 0 0.02 0 0 0 0 0.03 0 0 0 0 0.06 0 0 0 0.4 0"/>
    </filter>
  </defs>

  <rect width="1600" height="900" fill="#04070D" fill-opacity="0"/>

  <g filter="url(#panelShadow)">
    <rect x="170" y="170" width="1260" height="560" rx="48" fill="url(#panel)"/>
  </g>
  <rect x="170" y="170" width="1260" height="560" rx="48" stroke="#EAF3FF" stroke-opacity="0.1" stroke-width="2"/>

  <circle cx="412" cy="450" r="180" fill="#09111D"/>
  <circle cx="412" cy="450" r="204" stroke="url(#ring)" stroke-width="18"/>
  <ellipse cx="412" cy="450" rx="138" ry="76" transform="rotate(-22 412 450)" stroke="url(#orbit)" stroke-width="14"/>
  <circle cx="530" cy="364" r="12" fill="#F6B73C"/>
  <polygon points="412.0,330.0 437.0,407.9 517.1,390.6 462.2,450.0 517.1,509.4 437.0,492.1 412.0,570.0 387.0,492.1 306.9,509.4 361.8,450.0 306.9,390.6 387.0,407.9" fill="#F6B73C"/>
  <polygon points="412.0,388.0 429.0,434.7 475.7,451.7 429.0,468.7 412.0,515.4 395.0,468.7 348.3,451.7 395.0,434.7" fill="#EAF3FF"/>
  <circle cx="412" cy="452" r="9" fill="#FFFFFF"/>
  <circle cx="282" cy="314" r="3.5" fill="#EAF3FF" fill-opacity="0.78"/>
  <circle cx="562" cy="526" r="4.5" fill="#68E1D2" fill-opacity="0.72"/>

  <text x="690" y="412" fill="#F4F8FF" font-size="124" font-weight="800" letter-spacing="8" font-family="Space Grotesk, Sora, Segoe UI, sans-serif">DEEP SKY</text>
  <text x="694" y="492" fill="#F6B73C" font-size="40" font-weight="700" letter-spacing="10" font-family="IBM Plex Sans, Segoe UI, sans-serif">TRADING CARD GAME</text>
  <rect x="694" y="534" width="454" height="12" rx="6" fill="#68E1D2"/>
  <rect x="1166" y="534" width="138" height="12" rx="6" fill="#F6B73C"/>
  <text x="694" y="612" fill="#BDD4EA" fill-opacity="0.92" font-size="34" font-weight="500" letter-spacing="2" font-family="IBM Plex Sans, Segoe UI, sans-serif">Collection astronomique • ouverture de packs • progression offline</text>
</svg>
