<svg width="1024" height="1024" viewBox="0 0 1024 1024" fill="none" xmlns="http://www.w3.org/2000/svg">
  <title>Eight Point Star Monochrome</title>
  <g fill="#FFFFFF">
    <polygon points="512,12 548,512 512,622 476,512"/>
    <polygon points="512,1012 476,512 512,402 548,512"/>

    <polygon points="292,512 512,488 560,512 512,536"/>
    <polygon points="732,512 512,536 464,512 512,488"/>

    <polygon points="579.9,444.1 521.9,521.9 496.4,527.6 502.1,502.1"/>
    <polygon points="579.9,579.9 502.1,521.9 496.4,496.4 521.9,502.1"/>
    <polygon points="444.1,579.9 502.1,502.1 527.6,496.4 521.9,521.9"/>
    <polygon points="444.1,444.1 521.9,502.1 527.6,527.6 502.1,521.9"/>

    <circle cx="512" cy="512" r="44"/>
    <path d="M512 458L542 512L512 566L482 512L512 458Z"/>
  </g>
</svg>
