<svg width="1024" height="1024" viewBox="0 0 1024 1024" fill="none" xmlns="http://www.w3.org/2000/svg">
  <title>Eight Point Star Gradient Multicolor</title>
  <defs>
    <linearGradient id="topRay" x1="512" y1="512" x2="512" y2="12" gradientUnits="userSpaceOnUse">
      <stop offset="0" stop-color="#FFFFFF"/>
      <stop offset="0.45" stop-color="#FFF2C8"/>
      <stop offset="1" stop-color="#F6B73C"/>
    </linearGradient>
    <linearGradient id="bottomRay" x1="512" y1="512" x2="512" y2="1012" gradientUnits="userSpaceOnUse">
      <stop offset="0" stop-color="#FFFFFF"/>
      <stop offset="0.45" stop-color="#FFE0EC"/>
      <stop offset="1" stop-color="#FF4F88"/>
    </linearGradient>
    <linearGradient id="leftRay" x1="512" y1="512" x2="292" y2="512" gradientUnits="userSpaceOnUse">
      <stop offset="0" stop-color="#FFFFFF"/>
      <stop offset="0.45" stop-color="#E2F5FF"/>
      <stop offset="1" stop-color="#2F7DFF"/>
    </linearGradient>
    <linearGradient id="rightRay" x1="512" y1="512" x2="732" y2="512" gradientUnits="userSpaceOnUse">
      <stop offset="0" stop-color="#FFFFFF"/>
      <stop offset="0.45" stop-color="#D9FBF5"/>
      <stop offset="1" stop-color="#1BC5A3"/>
    </linearGradient>
    <linearGradient id="neRay" x1="512" y1="512" x2="579.9" y2="444.1" gradientUnits="userSpaceOnUse">
      <stop offset="0" stop-color="#FFFFFF"/>
      <stop offset="0.56" stop-color="#F0E7FF"/>
      <stop offset="1" stop-color="#9A62FF"/>
    </linearGradient>
    <linearGradient id="seRay" x1="512" y1="512" x2="579.9" y2="579.9" gradientUnits="userSpaceOnUse">
      <stop offset="0" stop-color="#FFFFFF"/>
      <stop offset="0.56" stop-color="#FFE6F8"/>
      <stop offset="1" stop-color="#FF57C3"/>
    </linearGradient>
    <linearGradient id="swRay" x1="512" y1="512" x2="444.1" y2="579.9" gradientUnits="userSpaceOnUse">
      <stop offset="0" stop-color="#FFFFFF"/>
      <stop offset="0.56" stop-color="#FFF3D7"/>
      <stop offset="1" stop-color="#FF9E2C"/>
    </linearGradient>
    <linearGradient id="nwRay" x1="512" y1="512" x2="444.1" y2="444.1" gradientUnits="userSpaceOnUse">
      <stop offset="0" stop-color="#FFFFFF"/>
      <stop offset="0.56" stop-color="#E7FAFF"/>
      <stop offset="1" stop-color="#52C7FF"/>
    </linearGradient>
  </defs>

  <polygon points="512,12 548,512 512,622 476,512" fill="url(#topRay)"/>
  <polygon points="512,1012 476,512 512,402 548,512" fill="url(#bottomRay)"/>

  <polygon points="292,512 512,488 560,512 512,536" fill="url(#leftRay)"/>
  <polygon points="732,512 512,536 464,512 512,488" fill="url(#rightRay)"/>

  <polygon points="579.9,444.1 521.9,521.9 496.4,527.6 502.1,502.1" fill="url(#neRay)"/>
  <polygon points="579.9,579.9 502.1,521.9 496.4,496.4 521.9,502.1" fill="url(#seRay)"/>
  <polygon points="444.1,579.9 502.1,502.1 527.6,496.4 521.9,521.9" fill="url(#swRay)"/>
  <polygon points="444.1,444.1 521.9,502.1 527.6,527.6 502.1,521.9" fill="url(#nwRay)"/>

  <circle cx="512" cy="512" r="44" fill="#FFFFFF"/>
  <path d="M512 458L542 512L512 566L482 512L512 458Z" fill="#FFFFFF"/>
</svg>
