<?xml version="1.0" encoding="UTF-8" standalone="no"?>
<!DOCTYPE svg PUBLIC "-//W3C//DTD SVG 1.1//EN" "http://www.w3.org/Graphics/SVG/1.1/DTD/svg11.dtd">
<svg width="100%" height="100%" viewBox="0 0 1000 1778" version="1.1" xmlns="http://www.w3.org/2000/svg" xmlns:xlink="http://www.w3.org/1999/xlink" xml:space="preserve" xmlns:serif="http://www.serif.com/" style="fill-rule:evenodd;clip-rule:evenodd;">
    <g id="layer-mountain">
        <rect x="0" y="0" width="1000" height="1778" style="fill:url(#_Linear1);"/>
        <rect x="0" y="0" width="1000" height="1778" style="fill:url(#_Radial2);"/>
        <g transform="matrix(1,0,0,1,5,167.895501)">
            <path d="M602,476L722,282L820,420L894,300L1000,456L1000,764L602,764L602,476Z" style="fill:rgb(7,17,26);fill-opacity:0.94;fill-rule:nonzero;"/>
        </g>
        <path d="M0,710L144,604L248,676L410,532L560,682L722,544L785.884,586.742L938.901,587.827L1000,672.608L1000,1778L0,1778L0,710Z" style="fill:rgb(5,9,15);fill-opacity:0.95;fill-rule:nonzero;"/>
        <circle cx="820" cy="356" r="34" style="fill:rgb(7,17,26);fill-opacity:0.78;"/>
        <circle cx="820" cy="356" r="16" style="fill:rgb(234,243,255);fill-opacity:0.58;"/>
        <circle cx="178" cy="288" r="2.4" style="fill:rgb(234,243,255);fill-opacity:0.7;"/>
        <circle cx="286" cy="226" r="2.1" style="fill:rgb(246,183,60);fill-opacity:0.55;"/>
        <circle cx="418" cy="326" r="2.7" style="fill:rgb(234,243,255);fill-opacity:0.82;"/>
        <circle cx="640" cy="216" r="2.5" style="fill:rgb(234,243,255);fill-opacity:0.72;"/>
        <circle cx="722" cy="174" r="1.9" style="fill:rgb(104,225,210);fill-opacity:0.74;"/>
        <circle cx="886" cy="242" r="2.8" style="fill:rgb(234,243,255);fill-opacity:0.74;"/>
        <g id="Observatoire" transform="matrix(1,0,0,1,246.269,-641.558625)">
            <g id="terrace">
                <path d="M415.731,1228.301L691.731,1228.301L713.731,1258.301L405.731,1258.301L415.731,1228.301Z" style="fill:rgb(10,16,25);fill-rule:nonzero;"/>
                <g transform="matrix(1,0,0,1,31,-26)">
                    <path d="M371.731,1284.301L445.731,1284.301L523.731,1328.301L449.731,1328.301L371.731,1284.301Z" style="fill:rgb(9,13,20);fill-rule:nonzero;"/>
                </g>
            </g>
            <g id="building">
                <rect x="495.966" y="1127.386" width="128" height="102" style="fill:rgb(21,31,47);"/>
                <path d="M623.966,1127.585L669.966,1149.527L669.966,1233.307L623.966,1229.317L623.966,1127.584L623.966,1127.585Z" style="fill:rgb(14,22,34);fill-rule:nonzero;"/>
                <ellipse cx="559.966" cy="1126.119" rx="64" ry="21" style="fill:rgb(25,37,56);"/>
            </g>
            <g id="lights">
                <rect x="559.966" y="1147.119" width="14" height="76" style="fill:rgb(238,190,104);fill-opacity:0.8;"/>
                <rect x="593.966" y="1175.386" width="12" height="46" style="fill:rgb(210,165,88);fill-opacity:0.7;"/>
            </g>
            <g id="rembarde">
                <g>
                    <path d="M416.108,1212.163L416.108,1228.236" style="fill:none;fill-rule:nonzero;stroke:rgb(86,100,119);stroke-opacity:0.42;stroke-width:0.94px;"/>
                    <path d="M423.428,1212.163L423.428,1228.236" style="fill:none;fill-rule:nonzero;stroke:rgb(86,100,119);stroke-opacity:0.42;stroke-width:0.94px;"/>
                    <path d="M430.748,1212.163L430.748,1228.236" style="fill:none;fill-rule:nonzero;stroke:rgb(86,100,119);stroke-opacity:0.42;stroke-width:0.94px;"/>
                    <path d="M438.069,1212.163L438.069,1228.236" style="fill:none;fill-rule:nonzero;stroke:rgb(86,100,119);stroke-opacity:0.42;stroke-width:0.94px;"/>
                    <path d="M445.389,1212.163L445.389,1228.236" style="fill:none;fill-rule:nonzero;stroke:rgb(86,100,119);stroke-opacity:0.42;stroke-width:0.94px;"/>
                    <path d="M452.709,1212.163L452.709,1228.236" style="fill:none;fill-rule:nonzero;stroke:rgb(86,100,119);stroke-opacity:0.42;stroke-width:0.94px;"/>
                    <path d="M460.03,1212.163L460.03,1228.236" style="fill:none;fill-rule:nonzero;stroke:rgb(86,100,119);stroke-opacity:0.42;stroke-width:0.94px;"/>
                    <path d="M467.35,1212.163L467.35,1228.236" style="fill:none;fill-rule:nonzero;stroke:rgb(86,100,119);stroke-opacity:0.42;stroke-width:0.94px;"/>
                    <path d="M474.67,1212.163L474.67,1228.236" style="fill:none;fill-rule:nonzero;stroke:rgb(86,100,119);stroke-opacity:0.42;stroke-width:0.94px;"/>
                    <path d="M481.991,1212.163L481.991,1228.236" style="fill:none;fill-rule:nonzero;stroke:rgb(86,100,119);stroke-opacity:0.42;stroke-width:0.94px;"/>
                    <path d="M489.311,1212.163L489.311,1228.236" style="fill:none;fill-rule:nonzero;stroke:rgb(86,100,119);stroke-opacity:0.42;stroke-width:0.94px;"/>
                </g>
                <path d="M416.108,1212.163L495.966,1212.163" style="fill:none;fill-rule:nonzero;stroke:rgb(86,100,119);stroke-opacity:0.48;stroke-width:1.41px;"/>
            </g>
            <g id="dome">
                <path d="M543.819,1117.174L495.338,1065.377L520.508,1046.827L562.731,1091.699L543.819,1117.174Z" style="fill:rgb(14,22,34);fill-rule:nonzero;"/>
                <path d="M495.96,1126.63C495.96,1092.664 524.852,1064.714 559.963,1064.714C595.074,1064.714 623.966,1092.664 623.966,1126.63L495.96,1126.63Z" style="fill:rgb(31,45,64);fill-rule:nonzero;"/>
                <path d="M501.525,1126.63C501.525,1095.717 527.905,1070.28 559.962,1070.28C592.02,1070.28 618.399,1095.717 618.399,1126.63" style="fill:none;fill-rule:nonzero;stroke:rgb(229,193,112);stroke-opacity:0.8;stroke-width:2.78px;"/>
            </g>
        </g>
    </g>
    <defs>
        <linearGradient id="_Linear1" x1="0" y1="0" x2="1" y2="0" gradientUnits="userSpaceOnUse" gradientTransform="matrix(0,1778,-1778,0,0,0)"><stop offset="0" style="stop-color:rgb(6,19,35);stop-opacity:1"/><stop offset="0.54" style="stop-color:rgb(8,24,44);stop-opacity:1"/><stop offset="1" style="stop-color:rgb(1,3,8);stop-opacity:1"/></linearGradient>
        <radialGradient id="_Radial2" cx="0" cy="0" r="1" gradientUnits="userSpaceOnUse" gradientTransform="matrix(1500,0,0,1500,180,1422)"><stop offset="0" style="stop-color:rgb(6,19,35);stop-opacity:0"/><stop offset="0.58" style="stop-color:rgb(6,19,35);stop-opacity:0.22"/><stop offset="0.82" style="stop-color:rgb(1,3,8);stop-opacity:0.7"/><stop offset="1" style="stop-color:rgb(1,3,8);stop-opacity:0.95"/></radialGradient>
    </defs>
</svg>
