<?xml version="1.0" encoding="UTF-8" standalone="no"?><!DOCTYPE svg PUBLIC "-//W3C//DTD SVG 1.1//EN" "http://www.w3.org/Graphics/SVG/1.1/DTD/svg11.dtd"><svg width="100%" height="100%" viewBox="0 0 62520 10420" version="1.1" xmlns="http://www.w3.org/2000/svg" xmlns:xlink="http://www.w3.org/1999/xlink" xml:space="preserve" xmlns:serif="http://www.serif.com/" style="fill-rule:evenodd;clip-rule:evenodd;"><circle cx="31255.554" cy="5210.983" r="4752.779" style="fill:none;stroke:#fff;stroke-width:423.5px;"/><circle cx="31255.554" cy="5210.983" r="4329.262" style="fill:none;stroke:#fff;stroke-width:23.54px;"/><circle cx="28879.167" cy="2599.308" r="35.292" style="fill:#fff;fill-opacity:0.85;"/><circle cx="33490.771" cy="2081.679" r="58.821" style="fill:#fff;fill-opacity:0.78;"/><circle cx="34314.275" cy="3563.983" r="47.058" style="fill:#fff;fill-opacity:0.65;"/><circle cx="28243.896" cy="6575.642" r="47.058" style="fill:#fff;fill-opacity:0.72;"/><circle cx="33843.7" cy="7399.146" r="35.292" style="fill:#fff;fill-opacity:0.72;"/><circle cx="29514.438" cy="7987.358" r="58.821" style="fill:#fff;fill-opacity:0.52;"/><path d="M31193.725,9029.735l-370.967,-3478.917l370.967,-765.365l370.967,765.365l-370.967,3478.917Z" style="fill:#fff;fill-rule:nonzero;"/><path d="M30612.138,3618.467c1541.146,-622.663 3080.671,-414.604 3435.783,464.333c355.112,878.938 -607.796,2098.046 -2148.946,2720.708c-1541.146,622.663 -3080.671,414.604 -3435.783,-464.333c-355.112,-878.937 607.796,-2098.046 2148.946,-2720.708Z" style="fill:url(#_Linear1);stroke:#fff;stroke-width:282.33px;"/><path d="M31918.317,3964.512c1284.167,682.804 2029.775,1795.679 1663.988,2483.625c-365.788,687.946 -1705.342,692.121 -2989.508,9.317c-1284.167,-682.804 -2029.775,-1795.679 -1663.987,-2483.625c365.788,-687.946 1705.342,-692.121 2989.508,-9.317l-0.001,0Z" style="fill:#68e1d2;fill-opacity:0;stroke:#fff;stroke-opacity:0.24;stroke-width:117.63px;"/><circle cx="28708.292" cy="6706.017" r="399.987" style="fill:#fff;fill-opacity:0.18;"/><circle cx="28708.292" cy="6706.017" r="211.758" style="fill:#fff;"/><circle cx="31255.554" cy="5210.983" r="1741.117" style="fill:#fff;fill-opacity:0.16;"/><path d="M31193.725,1392.236l370.967,3478.917l-370.967,765.365l-370.967,-765.365l370.967,-3478.917Z" style="fill:#fff;fill-rule:nonzero;"/><path d="M28926.701,5188.328l2267.024,-247.31l494.625,247.31l-494.625,247.31l-2267.024,-247.31Z" style="fill:#fff;fill-rule:nonzero;"/><path d="M33584.407,5202.116l-2267.024,247.31l-494.625,-247.31l494.625,-247.31l2267.024,247.31Z" style="fill:#fff;fill-rule:nonzero;"/><path d="M31975.681,4581.971l-693.543,720.372l-268.064,25.302l91.244,-253.323l870.363,-492.351Z" style="fill:#fff;fill-rule:nonzero;"/><path d="M31973.664,5797.281l-868.725,-495.233l-90.403,-253.624l267.975,26.188l691.152,722.668l0.001,0.001Z" style="fill:#fff;fill-rule:nonzero;"/><path d="M30411.775,5794.689l693.543,-720.372l268.064,-25.302l-91.244,253.323l-870.363,492.351Z" style="fill:#fff;fill-rule:nonzero;"/><path d="M30413.793,4579.38l868.725,495.233l90.403,253.624l-267.975,-26.188l-691.152,-722.668l-0.001,-0.001Z" style="fill:#fff;fill-rule:nonzero;"/><circle cx="31193.725" cy="5188.328" r="453.406" style="fill:#fff;"/><g><g transform="matrix(0.760783,0,0,1,1579.271049,0)"><g transform="matrix(9184.214,0,0,9184.214,31611.776652,8441.067)"></g><text x="6601.835px" y="8441.067px" style="font-family:'ArialMT', 'Arial', sans-serif;font-size:9184.214px;fill:#fff;">APPR</text></g><g transform="matrix(0.760783,0,0,1,2038.876966,0)"><g transform="matrix(9184.214,0,0,9184.214,70714.930909,8441.067)"></g><text x="45704.989px" y="8441.067px" style="font-family:'ArialMT', 'Arial', sans-serif;font-size:9184.214px;fill:#fff;">UVÉE</text></g></g><defs><linearGradient id="_Linear1" x1="0" y1="0" x2="1" y2="0" gradientUnits="userSpaceOnUse" gradientTransform="matrix(6404.83495,2411.432588,-2411.432588,6404.83495,28179.623137,3941.476708)"><stop offset="0" style="stop-color:#68e1d2;stop-opacity:0"/><stop offset="0.3" style="stop-color:#68e1d2;stop-opacity:0"/><stop offset="0.72" style="stop-color:#eaf3ff;stop-opacity:0"/><stop offset="1" style="stop-color:#68e1d2;stop-opacity:0"/></linearGradient></defs></svg>