<?xml version="1.0" encoding="UTF-8" standalone="no"?><!DOCTYPE svg PUBLIC "-//W3C//DTD SVG 1.1//EN" "http://www.w3.org/Graphics/SVG/1.1/DTD/svg11.dtd"><svg width="100%" height="100%" viewBox="0 0 2167 539" version="1.1" xmlns="http://www.w3.org/2000/svg" xmlns:xlink="http://www.w3.org/1999/xlink" xml:space="preserve" xmlns:serif="http://www.serif.com/" style="fill-rule:evenodd;clip-rule:evenodd;stroke-linecap:round;stroke-linejoin:round;stroke-miterlimit:1.5;"><path d="M2124.672,149.812l0,238.776c0,65.892 -53.496,119.388 -119.388,119.388l-1863.19,0c-65.892,0 -119.388,-53.496 -119.388,-119.388l0,-238.776c0,-65.892 53.496,-119.388 119.388,-119.388l1863.19,0c65.892,0 119.388,53.496 119.388,119.388Z" style="fill-opacity:0;stroke:#fff;stroke-width:15.19px;"/><circle cx="1076.195" cy="266.358" r="192.611" style="fill:none;stroke:#fff;stroke-width:17.16px;stroke-linecap:butt;stroke-linejoin:miter;stroke-miterlimit:4;"/><circle cx="1076.195" cy="266.358" r="175.448" style="fill:none;stroke:#fff;stroke-width:0.95px;stroke-linecap:butt;stroke-linejoin:miter;stroke-miterlimit:4;"/><circle cx="979.889" cy="160.518" r="1.43" style="fill:#fff;fill-opacity:0.85;"/><circle cx="1166.78" cy="139.54" r="2.384" style="fill:#fff;fill-opacity:0.78;"/><circle cx="1200.153" cy="199.612" r="1.907" style="fill:#fff;fill-opacity:0.65;"/><circle cx="954.144" cy="321.663" r="1.907" style="fill:#fff;fill-opacity:0.72;"/><circle cx="1181.082" cy="355.036" r="1.43" style="fill:#fff;fill-opacity:0.72;"/><circle cx="1005.634" cy="378.874" r="2.384" style="fill:#fff;fill-opacity:0.52;"/><path d="M1073.689,421.117l-15.034,-140.987l15.034,-31.017l15.034,31.017l-15.034,140.987Z" style="fill:#fff;fill-rule:nonzero;"/><path d="M1050.12,201.82c62.457,-25.234 124.847,-16.802 139.239,18.818c14.391,35.62 -24.632,85.026 -87.088,110.26c-62.457,25.234 -124.847,16.802 -139.239,-18.818c-14.391,-35.62 24.632,-85.026 87.088,-110.26Z" style="fill:url(#_Linear1);stroke:#fff;stroke-width:11.44px;stroke-linecap:butt;stroke-linejoin:miter;stroke-miterlimit:4;"/><path d="M1103.054,215.844c52.042,27.671 82.259,72.772 67.435,100.652c-14.824,27.88 -69.111,28.049 -121.153,0.378c-52.042,-27.671 -82.259,-72.772 -67.435,-100.652c14.824,-27.88 69.111,-28.049 121.153,-0.378l-0,0Z" style="fill:#68e1d2;fill-opacity:0;stroke:#fff;stroke-opacity:0.24;stroke-width:4.77px;stroke-linecap:butt;stroke-linejoin:miter;stroke-miterlimit:4;"/><circle cx="972.964" cy="326.946" r="16.21" style="fill:#fff;fill-opacity:0.18;"/><circle cx="972.964" cy="326.946" r="8.582" style="fill:#fff;"/><circle cx="1076.195" cy="266.358" r="70.561" style="fill:#fff;fill-opacity:0.16;"/><path d="M1073.689,111.6l15.034,140.987l-15.034,31.017l-15.034,-31.017l15.034,-140.987Z" style="fill:#fff;fill-rule:nonzero;"/><path d="M981.816,265.44l91.874,-10.023l20.045,10.023l-20.045,10.023l-91.874,-10.023Z" style="fill:#fff;fill-rule:nonzero;"/><path d="M1170.574,265.999l-91.874,10.023l-20.045,-10.023l20.045,-10.023l91.874,10.023Z" style="fill:#fff;fill-rule:nonzero;"/><path d="M1105.379,240.867l-28.107,29.194l-10.864,1.025l3.698,-10.266l35.272,-19.953Z" style="fill:#fff;fill-rule:nonzero;"/><path d="M1105.297,290.119l-35.206,-20.07l-3.664,-10.278l10.86,1.061l28.01,29.287l0,0Z" style="fill:#fff;fill-rule:nonzero;"/><path d="M1042,290.014l28.107,-29.194l10.864,-1.025l-3.698,10.266l-35.272,19.953Z" style="fill:#fff;fill-rule:nonzero;"/><path d="M1042.082,240.762l35.206,20.07l3.664,10.278l-10.86,-1.061l-28.01,-29.287l-0,-0Z" style="fill:#fff;fill-rule:nonzero;"/><circle cx="1073.689" cy="265.44" r="18.375" style="fill:#fff;"/><g><g><g transform="matrix(0.760783,0,0,1,18.43804,0)"><text x="77.077px" y="397.261px" style="font-family:'ArialMT', 'Arial', sans-serif;font-size:372.2px;fill:#fff;">APPR</text></g></g><g><g transform="matrix(0.760783,0,0,1,311.296259,0)"><text x="1301.313px" y="397.261px" style="font-family:'ArialMT', 'Arial', sans-serif;font-size:372.2px;fill:#fff;">UVÉE</text></g></g></g><defs><linearGradient id="_Linear1" x1="0" y1="0" x2="1" y2="0" gradientUnits="userSpaceOnUse" gradientTransform="matrix(259.562784,97.725884,-97.725884,259.562784,951.539566,214.910383)"><stop offset="0" style="stop-color:#68e1d2;stop-opacity:0"/><stop offset="0.3" style="stop-color:#68e1d2;stop-opacity:0"/><stop offset="0.72" style="stop-color:#eaf3ff;stop-opacity:0"/><stop offset="1" style="stop-color:#68e1d2;stop-opacity:0"/></linearGradient></defs></svg>