<svg xmlns="http://www.w3.org/2000/svg" viewBox="0 0 900 1578" width="900" height="1578">
  <defs>
    <linearGradient id="sky" x1="0" y1="0" x2="0" y2="1">
      <stop offset="0%" stop-color="#0b1626"/>
      <stop offset="100%" stop-color="#04080f"/>
    </linearGradient>
    <filter id="blur-soft" x="-20%" y="-20%" width="140%" height="140%">
      <feGaussianBlur stdDeviation="18"/>
    </filter>
    <filter id="blur-clouds" x="-20%" y="-20%" width="140%" height="140%">
      <feGaussianBlur stdDeviation="26"/>
    </filter>
    <clipPath id="card-clip">
      <rect x="0" y="0" width="900" height="1578" rx="58" ry="58"/>
    </clipPath>
  </defs>

  <g clip-path="url(#card-clip)">
    <rect width="900" height="1578" fill="url(#sky)"/>

    <g id="sky-glow">
      <circle cx="648" cy="284" r="180" fill="#c2dcff" opacity="0.14" filter="url(#blur-soft)"/>
      <circle cx="648" cy="284" r="60" fill="#ffe2aa" opacity="0.16" filter="url(#blur-soft)"/>
      <circle cx="671" cy="248" r="36" fill="#e1ecff" opacity="0.08" filter="url(#blur-soft)"/>
    </g>

    <g id="constellation" stroke="#d2e6ff" stroke-opacity="0.36" stroke-width="2" fill="none">
      <path d="M140 220 L250 168 L370 198 L510 154 L676 218"/>
    </g>
    <g id="constellation-stars">
      <circle cx="140" cy="220" r="4" fill="#f3f7ff" opacity="0.9"/>
      <circle cx="250" cy="168" r="4" fill="#f3f7ff" opacity="0.9"/>
      <circle cx="370" cy="198" r="4" fill="#f3f7ff" opacity="0.9"/>
      <circle cx="510" cy="154" r="4" fill="#f3f7ff" opacity="0.9"/>
      <circle cx="676" cy="218" r="4" fill="#f3f7ff" opacity="0.9"/>
      <circle cx="140" cy="220" r="10" fill="none" stroke="#ffd684" stroke-opacity="0.22" stroke-width="2"/>
      <circle cx="250" cy="168" r="10" fill="none" stroke="#ffd684" stroke-opacity="0.22" stroke-width="2"/>
      <circle cx="370" cy="198" r="10" fill="none" stroke="#ffd684" stroke-opacity="0.22" stroke-width="2"/>
      <circle cx="510" cy="154" r="10" fill="none" stroke="#ffd684" stroke-opacity="0.22" stroke-width="2"/>
      <circle cx="676" cy="218" r="10" fill="none" stroke="#ffd684" stroke-opacity="0.22" stroke-width="2"/>
    </g>

    <g id="stars" fill="#ebf5ff">
      <circle cx="635" cy="239" r="2" opacity="0.76"/>
      <circle cx="518" cy="89" r="3" opacity="0.78"/>
      <circle cx="656" cy="267" r="1" opacity="0.72"/>
      <circle cx="841" cy="257" r="1" opacity="0.68"/>
      <circle cx="112" cy="301" r="1" opacity="0.64"/>
      <circle cx="495" cy="590" r="1" opacity="0.58"/>
      <circle cx="845" cy="373" r="1" opacity="0.63"/>
      <circle cx="453" cy="472" r="1.5" fill="#ffdf9a" opacity="0.78"/>
      <circle cx="518" cy="351" r="1" opacity="0.68"/>
      <circle cx="679" cy="376" r="3" opacity="0.82"/>
      <circle cx="313" cy="444" r="2" opacity="0.72"/>
      <circle cx="118" cy="454" r="3" opacity="0.8"/>
      <circle cx="46" cy="515" r="1" opacity="0.62"/>
      <circle cx="393" cy="62" r="1" opacity="0.7"/>
      <circle cx="49" cy="308" r="2" opacity="0.7"/>
      <circle cx="75" cy="482" r="1" opacity="0.62"/>
      <circle cx="821" cy="194" r="2" opacity="0.74"/>
      <circle cx="785" cy="411" r="3" opacity="0.82"/>
      <circle cx="210" cy="550" r="2" opacity="0.7"/>
      <circle cx="225" cy="583" r="3" opacity="0.82"/>
      <circle cx="126" cy="107" r="1" opacity="0.64"/>
      <circle cx="587" cy="492" r="1" opacity="0.64"/>
      <circle cx="664" cy="511" r="3" opacity="0.84"/>
      <circle cx="223" cy="245" r="3" opacity="0.82"/>

      <path d="M518 84 V94 M513 89 H523" stroke="#ebf5ff" stroke-opacity="0.3" stroke-width="1"/>
      <path d="M679 369 V383 M672 376 H686" stroke="#ebf5ff" stroke-opacity="0.26" stroke-width="1"/>
      <path d="M118 447 V461 M111 454 H125" stroke="#ebf5ff" stroke-opacity="0.24" stroke-width="1"/>
      <path d="M785 404 V418 M778 411 H792" stroke="#ebf5ff" stroke-opacity="0.28" stroke-width="1"/>
      <path d="M225 575 V591 M217 583 H233" stroke="#ebf5ff" stroke-opacity="0.28" stroke-width="1"/>
      <path d="M664 503 V519 M656 511 H672" stroke="#ebf5ff" stroke-opacity="0.28" stroke-width="1"/>
    </g>

    <g id="clouds" filter="url(#blur-clouds)">
      <ellipse cx="120" cy="1090" rx="220" ry="90" fill="#c2d6e8" fill-opacity="0.3"/>
      <ellipse cx="290" cy="1050" rx="250" ry="110" fill="#c2d6e8" fill-opacity="0.36"/>
      <ellipse cx="520" cy="1082" rx="320" ry="108" fill="#c2d6e8" fill-opacity="0.34"/>
      <ellipse cx="770" cy="1058" rx="220" ry="90" fill="#c2d6e8" fill-opacity="0.28"/>
      <ellipse cx="210" cy="1190" rx="220" ry="84" fill="#c2d6e8" fill-opacity="0.2"/>
      <ellipse cx="560" cy="1210" rx="320" ry="94" fill="#c2d6e8" fill-opacity="0.18"/>
      <ellipse cx="820" cy="1180" rx="170" ry="70" fill="#c2d6e8" fill-opacity="0.14"/>
    </g>

    <g id="ridges">
      <polygon points="0,1246 160,1167 330,1230 500,1120 670,1199 900,1088 900,1578 0,1578" fill="#0f1b2a"/>
      <polygon points="0,1309 180,1215 360,1293 520,1167 720,1262 900,1199 900,1578 0,1578" fill="#081018"/>
    </g>
  </g>
</svg>
